<svg width="258" height="258" xmlns="http://www.w3.org/2000/svg" xmlns:xlink="http://www.w3.org/1999/xlink" xml:space="preserve" overflow="hidden"><defs><clipPath id="clip0"><rect x="0" y="0" width="258" height="258"/></clipPath></defs><g clip-path="url(#clip0)"><path d="M129.7 216.243C127.492 216.243 125.701 214.452 125.701 212.243L125.701 45.7567C125.701 43.5478 127.492 41.7569 129.7 41.7569 131.909 41.7569 133.7 43.5478 133.7 45.7567L133.7 212.243C133.7 214.452 131.909 216.243 129.7 216.243Z" stroke="#000000"/><path d="M128.999 0C57.8691 0 0 57.8691 0 128.999 0 200.131 57.8691 258 128.999 258 200.131 258 258 200.131 258 128.999 258 57.8691 200.131 0 128.999 0ZM128.999 250C91.3074 250 57.5881 232.673 35.3802 205.57 37.8461 203.704 39.397 200.775 40.651 198.388 41.8069 196.19 43.1168 193.698 44.2628 193.698 45.4077 193.698 46.7166 196.189 47.8716 198.387 49.8805 202.21 52.6323 207.446 58.713 207.446 64.7957 207.446 67.5486 202.211 69.5595 198.388 70.7154 196.189 72.0264 193.698 73.1733 193.698 74.3203 193.698 75.6312 196.19 76.7871 198.388 78.798 202.211 81.5509 207.446 87.6336 207.446 89.8905 207.446 91.7194 205.617 91.7194 203.361 91.7194 201.105 89.8905 199.275 87.6336 199.275 86.4866 199.275 85.1757 196.783 84.0198 194.585 82.0089 190.762 79.256 185.528 73.1733 185.528 67.0906 185.528 64.3378 190.762 62.3269 194.585 61.1709 196.784 59.86 199.275 58.713 199.275 57.5681 199.275 56.2592 196.784 55.1042 194.586 53.0953 190.763 50.3435 185.528 44.2628 185.528 38.1811 185.528 35.4282 190.763 33.4183 194.586 32.4584 196.411 31.3934 198.434 30.4025 199.069 22.6239 188.155 16.6152 175.898 12.7864 162.723 13.6503 161.21 14.5453 159.955 15.3572 159.955 16.5012 159.955 17.8101 162.446 18.964 164.644 20.9739 168.467 23.7258 173.703 29.8065 173.703 35.8882 173.703 38.6401 168.469 40.65 164.645 41.8059 162.447 43.1158 159.955 44.2618 159.955 45.4067 159.955 46.7156 162.446 47.8706 164.644 49.8795 168.467 52.6313 173.702 58.712 173.702 64.7947 173.702 67.5476 168.468 69.5585 164.645 70.7144 162.446 72.0254 159.955 73.1723 159.955 74.3193 159.955 75.6302 162.447 76.7861 164.645 78.797 168.468 81.5499 173.702 87.6326 173.702 89.8895 173.702 91.7184 171.873 91.7184 169.617 91.7184 167.362 89.8895 165.532 87.6326 165.532 86.4856 165.532 85.1747 163.04 84.0188 160.842 82.0079 157.019 79.255 151.784 73.1723 151.784 67.0896 151.784 64.3368 157.019 62.3259 160.842 61.1699 163.041 59.859 165.532 58.712 165.532 57.5671 165.532 56.2582 163.041 55.1032 160.843 53.0943 157.02 50.3425 151.784 44.2618 151.784 38.1801 151.784 35.4272 157.02 33.4173 160.843 32.2614 163.041 30.9514 165.532 29.8065 165.532 28.6616 165.532 27.3526 163.041 26.1977 160.843 24.1888 157.02 21.4379 151.784 15.3572 151.784 13.3973 151.784 11.7844 152.329 10.4295 153.195 9.31553 147.726 8.57757 142.121 8.23159 136.412 9.72551 134.706 10.8215 132.661 11.7464 130.901 12.9024 128.704 14.2123 126.213 15.3572 126.213 16.5012 126.213 17.8101 128.704 18.964 130.901 20.9739 134.724 23.7258 139.961 29.8065 139.961 35.8882 139.961 38.6401 134.726 40.65 130.902 41.8059 128.705 43.1158 126.213 44.2618 126.213 45.4067 126.213 46.7156 128.704 47.8706 130.901 49.8795 134.724 52.6313 139.96 58.712 139.96 64.7947 139.96 67.5476 134.725 69.5585 130.902 70.7144 128.704 72.0254 126.213 73.1723 126.213 74.3193 126.213 75.6302 128.705 76.7861 130.902 78.797 134.725 81.5499 139.96 87.6326 139.96 89.8895 139.96 91.7184 138.131 91.7184 135.875 91.7184 133.619 89.8895 131.789 87.6326 131.789 86.4856 131.789 85.1747 129.297 84.0188 127.1 82.0079 123.277 79.255 118.042 73.1723 118.042 67.0896 118.042 64.3368 123.277 62.3259 127.1 61.1699 129.298 59.859 131.789 58.712 131.789 57.5671 131.789 56.2582 129.298 55.1032 127.101 53.0943 123.278 50.3425 118.042 44.2618 118.042 38.1801 118.042 35.4272 123.278 33.4173 127.101 32.2614 129.298 30.9514 131.789 29.8065 131.789 28.6616 131.789 27.3526 129.298 26.1977 127.101 24.1888 123.278 21.4379 118.042 15.3572 118.042 12.2174 118.042 9.9695 119.441 8.24958 121.317 12.2284 58.1631 64.8617 7.9996 128.999 7.9996 195.72 7.9996 250 62.2799 250 128.999 250 195.719 195.719 250 128.999 250Z" stroke="#000000"/><path d="M206.868 58.921 169.925 58.921C167.164 58.921 164.926 61.1599 164.926 63.9208L164.926 104.511C164.926 107.272 167.164 109.51 169.925 109.51L206.868 109.51C209.629 109.51 211.867 107.272 211.867 104.511L211.867 63.9208C211.867 61.1599 209.629 58.921 206.868 58.921ZM205.393 98.913C205.393 100.913 203.772 102.534 201.772 102.534L175.019 102.534C173.019 102.534 171.398 100.913 171.398 98.913L171.398 69.5185C171.398 67.5186 173.019 65.8977 175.019 65.8977L201.772 65.8977C203.772 65.8977 205.393 67.5186 205.393 69.5185L205.393 98.913Z" stroke="#000000"/><path d="M187.773 98.3661C185.84 98.3661 184.076 98.1701 182.478 97.7781 180.88 97.3861 179.658 96.9161 178.807 96.3671L179.381 90.6864C180.205 91.4854 181.36 92.1614 182.843 92.7143 184.324 93.2683 186.008 93.5453 187.891 93.5453 191.142 93.5453 192.768 92.5633 192.768 90.5994 192.768 90.0565 192.641 89.5655 192.384 89.1265 192.128 88.6875 191.853 88.3256 191.56 88.0416 191.265 87.7576 190.772 87.4536 190.081 87.1306 189.39 86.8076 188.85 86.5746 188.461 86.4326 188.072 86.2906 187.416 86.0517 186.492 85.7137 185.703 85.4467 185.155 85.2477 184.849 85.1127L183.245 84.5267C182.519 84.2438 181.988 83.9938 181.651 83.7758 181.314 83.5578 180.899 83.2508 180.408 82.8518 179.915 82.4538 179.553 82.0499 179.318 81.6379 179.086 81.2269 178.878 80.7329 178.696 80.155 178.515 79.577 178.425 78.955 178.425 78.2871 178.425 76.1472 179.224 74.2433 180.821 72.5723 182.419 70.9014 184.88 70.0665 188.203 70.0665 189.948 70.0665 191.635 70.2905 193.264 70.7384 194.892 71.1864 196.112 71.6734 196.919 72.2004L196.41 77.3211C193.413 75.6982 190.742 74.8862 188.397 74.8862 187.07 74.8862 185.906 75.1022 184.904 75.5342 183.901 75.9652 183.401 76.6891 183.401 77.7041 183.401 78.668 183.862 79.412 184.786 79.932 185.711 80.4529 187.109 80.9919 188.983 81.5499 189.933 81.9039 190.658 82.1729 191.157 82.3588 191.656 82.5448 192.35 82.8028 193.24 83.1338 194.129 83.4638 194.818 83.8318 195.309 84.2348 195.798 84.6387 196.309 85.1317 196.837 85.7167 197.365 86.3017 197.753 86.9896 197.999 87.7836 198.243 88.5765 198.367 89.4535 198.367 90.4154 198.367 91.1434 198.301 91.8254 198.172 92.4613 198.04 93.0983 197.747 93.7943 197.291 94.5462 196.835 95.2992 196.235 95.9422 195.493 96.4751 194.75 97.0081 193.72 97.4561 192.405 97.8191 191.09 98.1831 189.545 98.3661 187.773 98.3661Z" stroke="#000000"/></g></svg>