<svg xmlns="http://www.w3.org/2000/svg" xmlns:xlink="http://www.w3.org/1999/xlink" width="304pt" height="260pt" viewBox="0.00 0.00 304.00 260.00">
<g id="graph0" class="graph" transform="scale(1 1) rotate(0) translate(4 256)">
<polygon fill="white" stroke="transparent" points="-4,4 -4,-256 300,-256 300,4 -4,4"/>
<!-- 0 -->
<g id="node1" class="node">
<title>0</title>
<text text-anchor="start" x="145" y="-231.3" font-family="Courier,monospace" font-weight="bold" font-size="14.00" fill="#004080">Expr</text>
</g>
<!-- 1 -->
<g id="node2" class="node">
<title>1</title>
<text text-anchor="start" x="145" y="-159.3" font-family="Courier,monospace" font-weight="bold" font-size="14.00" fill="#004080">Call</text>
</g>
<!-- 0&#45;&#45;1 -->
<g id="edge1" class="edge">
<title>0--1</title>
<path fill="none" stroke="black" d="M162,-215.7C162,-204.85 162,-190.92 162,-180.1"/>
</g>
<!-- 2 -->
<g id="node3" class="node">
<title>2</title>
<text text-anchor="start" x="102" y="-87.3" font-family="Courier,monospace" font-weight="bold" font-size="14.00" fill="#004080">Name</text>
</g>
<!-- 1&#45;&#45;2 -->
<g id="edge2" class="edge">
<title>1--2</title>
<path fill="none" stroke="black" d="M163,-143C163,-143 146.24,-123.19 133.41,-108.03"/>
</g>
<!-- 5 -->
<g id="node6" class="node">
<title>5</title>
<text text-anchor="start" x="184.5" y="-87.3" font-family="Courier,monospace" font-weight="bold" font-size="14.00" fill="#004080">Constant</text>
</g>
<!-- 1&#45;&#45;5 -->
<g id="edge5" class="edge">
<title>1--5</title>
<path fill="none" stroke="black" d="M163,-143C163,-143 183.95,-123.19 199.99,-108.03"/>
</g>
<!-- 3 -->
<g id="node4" class="node">
<title>3</title>
<text text-anchor="middle" x="37" y="-14.3" font-family="Courier,monospace" font-size="14.00" fill="#008040">&quot;print&quot;</text>
</g>
<!-- 2&#45;&#45;3 -->
<g id="edge3" class="edge">
<title>2--3</title>
<path fill="none" stroke="black" d="M111,-71C111,-71 82.81,-51.19 61.23,-36.03"/>
</g>
<!-- 4 -->
<g id="node5" class="node">
<title>4</title>
<text text-anchor="middle" x="119" y="-14.3" font-family="Courier,monospace" font-size="14.00" fill="#008040">Load</text>
</g>
<!-- 2&#45;&#45;4 -->
<g id="edge4" class="edge">
<title>2--4</title>
<path fill="none" stroke="black" d="M111,-71C111,-71 114.05,-51.19 116.38,-36.03"/>
</g>
<!-- 6 -->
<g id="node7" class="node">
<title>6</title>
<text text-anchor="middle" x="230" y="-14.3" font-family="Courier,monospace" font-size="14.00" fill="#008040">&quot;Hello World!&quot;</text>
</g>
<!-- 5&#45;&#45;6 -->
<g id="edge6" class="edge">
<title>5--6</title>
<path fill="none" stroke="black" d="M220.97,-71.7C222.83,-60.85 225.21,-46.92 227.07,-36.1"/>
</g>
</g>
</svg>